<svg xmlns="http://www.w3.org/2000/svg" width="1920" height="2000" viewBox="0 0 1920 2000">
  <rect id="Rectangle_3990" data-name="Rectangle 3990" width="1920" height="2000" fill="#092772"/>
  <g id="Group_291" data-name="Group 291" transform="translate(460 -2783)">
    <path id="Union_5" data-name="Union 5" d="M295.457,587V289.586H0V0H587V587Z" transform="translate(732 3693) rotate(180)" fill="#07205e"/>
    <path id="Union_6" data-name="Union 6" d="M295.457,587V289.586H0V0H587V587Z" transform="translate(-151 3402)" fill="#07205e"/>
  </g>
  <g id="Group_293" data-name="Group 293" transform="translate(1465.904 111.958)">
    <path id="Path_300" data-name="Path 300" d="M80.682,61.719,261.346,242.383l-59.327,59.326L21.355,121.045Z" transform="translate(-21.305 -61.604)" fill="#2b8fe5"/>
    <path id="Path_301" data-name="Path 301" d="M202.016,61.711l59.327,59.326L80.679,301.7,21.352,242.375Z" transform="translate(-21.352 -61.711)" fill="#2b8fe5"/>
  </g>
  <g id="Group_292" data-name="Group 292" transform="translate(1151.104 -2839.896)">
    <path id="Union_5-2" data-name="Union 5" d="M72.48,144V71.04H0V0H144V144Z" transform="translate(65.897 3249.896) rotate(180)" fill="#f0c331"/>
    <path id="Union_6-2" data-name="Union 6" d="M72.48,144V71.04H0V0H144V144Z" transform="translate(-151.103 3178.896)" fill="#f0c331"/>
  </g>
  <path id="Path_686" data-name="Path 686" d="M61.2,62.09h90.9V91.924H61.2Z" transform="translate(797.746 173.806)" fill="#2b8fe5"/>
  <path id="Path_759" data-name="Path 759" d="M61.2,62.09h90.9V91.924H61.2Z" transform="translate(179.746 919.806)" fill="#2b8fe5"/>
</svg>
