<svg xmlns="http://www.w3.org/2000/svg" width="166.735" height="139.92" viewBox="0 0 166.735 139.92">
  <path id="np_envelope_1982262_000000" d="M27.094,18C15.511,18,6,28.974,6,42.34v91.241c0,13.365,9.511,24.34,21.094,24.34H151.642c11.583,0,21.094-10.965,21.094-24.34V42.34c0-13.365-9.5-24.34-21.094-24.34Zm0,13.118H151.642c5.484,0,9.725,4.894,9.725,11.222V133.58c0,6.328-4.234,11.222-9.725,11.222H27.094c-5.484,0-9.725-4.885-9.725-11.222V42.339c0-6.328,4.241-11.222,9.725-11.222Zm118.117,4.859a5.376,5.376,0,0,0-3.967,2.015L89.368,97.85,37.493,37.992a5.3,5.3,0,0,0-4.078-1.981A5.737,5.737,0,0,0,28.152,40.1a7.306,7.306,0,0,0,1.3,7.165L64.721,87.959,29.455,128.652v.009a7.035,7.035,0,0,0-1.747,4.663,7.124,7.124,0,0,0,1.665,4.705,5.32,5.32,0,0,0,4.078,1.921,5.409,5.409,0,0,0,4.041-2.015L72.759,97.242l12.589,14.527v-.009a5.164,5.164,0,0,0,8.038,0l12.589-14.527,35.266,40.693v.009a5.409,5.409,0,0,0,4.041,2.015,5.319,5.319,0,0,0,4.078-1.921,7.124,7.124,0,0,0,1.665-4.705,7.035,7.035,0,0,0-1.747-4.663L114.013,87.968,149.28,47.275v-.009a7.283,7.283,0,0,0,1.31-7.25,5.708,5.708,0,0,0-5.381-4.04Z" transform="translate(-6 -18)" fill="#092772"/>
</svg>
