<svg xmlns="http://www.w3.org/2000/svg" width="141.239" height="73.152" viewBox="0 0 141.239 73.152">
  <g id="Group_4063" data-name="Group 4063" transform="translate(-803 -6648)">
    <path id="Path_119" data-name="Path 119" d="M145.083,428.256,120.4,403.569a22.292,22.292,0,0,0-31.525,0h0a22.292,22.292,0,0,0,0,31.525l24.687,24.687a22.292,22.292,0,0,0,31.525,0h0a22.292,22.292,0,0,0,0-31.525Z" transform="translate(720.658 6254.638)" fill="#5cc9f6"/>
    <path id="Path_120" data-name="Path 120" d="M446.632,457.032h0a22.292,22.292,0,0,0-31.525,0h0a22.292,22.292,0,0,0,0,31.528h0a22.292,22.292,0,0,0,31.526,0h0a22.292,22.292,0,0,0,0-31.528Z" transform="translate(491.076 6217.015)" fill="#fa8807"/>
    <path id="Path_121" data-name="Path 121" d="M131.009,456.866l-9.217,9.217-.04-.042a22.294,22.294,0,0,1-27.562,2.82,22.348,22.348,0,0,0,3.022,3.756l9.949,9.949.1-.037,14.754,14.754,40.417-40.417h0a22.216,22.216,0,0,0-31.423,0Z" transform="translate(712.318 6217.115)" fill="#00aeeb"/>
    <path id="Path_122" data-name="Path 122" d="M241.574,403.847h0l-.021-.021a21.906,21.906,0,0,0-31.411-.074l-40.4,40.4h0a22.292,22.292,0,0,1-30.017,1.367l14.328,14.328.016-.014a22.264,22.264,0,0,0,31.486,0L224.9,420.486l.065.019c.3-.344.616-.683.946-1.013h0A22.276,22.276,0,0,1,247.3,413.68a22.181,22.181,0,0,0-5.725-9.833Z" transform="translate(680.277 6254.558)" fill="#0080ca"/>
    <path id="Path_123" data-name="Path 123" d="M355.633,451.24a22.276,22.276,0,0,0-21.386,5.811c-.33.33-.641.669-.946,1.013l-.063-.019L293.9,497.389c-.072.072-.146.137-.216.207l.026.028h0a22.292,22.292,0,0,0,31.525,0l24.687-24.687a22.264,22.264,0,0,0,5.716-21.7Z" transform="translate(571.93 6217)" fill="#ee5913"/>
    <path id="Ellipse_4" data-name="Ellipse 4" d="M3.552,0A3.552,3.552,0,1,1,0,3.552,3.552,3.552,0,0,1,3.552,0Z" transform="translate(857.614 6658.418)" fill="#5cc9f6"/>
    <path id="Ellipse_5" data-name="Ellipse 5" d="M2.278,0A2.278,2.278,0,1,1,0,2.278,2.278,2.278,0,0,1,2.278,0Z" transform="translate(851.047 6654.06)" fill="#5cc9f6"/>
    <path id="Ellipse_6" data-name="Ellipse 6" d="M2.278,0A2.278,2.278,0,1,1,0,2.278,2.278,2.278,0,0,1,2.278,0Z" transform="translate(856.078 6648)" fill="#5cc9f6"/>
  </g>
</svg>
