<svg id="Group_182" data-name="Group 182" xmlns="http://www.w3.org/2000/svg" width="2829.997" height="723.523" viewBox="0 0 2829.997 723.523">
  <path id="Path_113" data-name="Path 113" d="M602.138,444.232h65.229a78.586,78.586,0,0,1,21.883,3.044A70.915,70.915,0,0,1,708.7,456.2a79.032,79.032,0,0,1,16,13.966A64.971,64.971,0,0,1,735.851,488q23.5,57.124,47.4,113.237t47.8,113.237a77.565,77.565,0,0,1,5.67,19.447q1.218,8.925,1.619,15.793a113.142,113.142,0,0,1,5.271-26.335,303.98,303.98,0,0,1,11.738-30.788l86.294-205.01a51.307,51.307,0,0,1,10.5-16.4,87.575,87.575,0,0,1,16.612-13.967,88.765,88.765,0,0,1,20.058-9.723,65.767,65.767,0,0,1,21.273-3.654h65.229l-46.2,109.793,51.452,122.351q8.107,19.048,15.794,37.487a104.084,104.084,0,0,1,8.507,34.652q.4-3.235,1.006-7.5t2.227-10.731a156.886,156.886,0,0,1,4.872-15.393q3.234-8.906,8.9-21.884l86.393-205.01a52.812,52.812,0,0,1,10.333-16.4A82.035,82.035,0,0,1,1235,457.23a88.637,88.637,0,0,1,20.056-9.722,65.757,65.757,0,0,1,21.276-3.655h65.228L1162.485,869.667H1047.422l-62-157.191q-3.234-8.5-5.67-17.41a68.99,68.99,0,0,1-2.437-18.229,52.392,52.392,0,0,1,2.835-17.41q-7.707,21.883-28.56,74.134T895.877,869.687H780.814Z" transform="translate(-602.138 -289.056)" fill="#f8f9fa"/>
  <path id="Path_114" data-name="Path 114" d="M889.034,447.785h86.65q2.1,0,6.089,11.13a180.612,180.612,0,0,1,7.288,31.817,43.27,43.27,0,0,1,14.994-20.875,109,109,0,0,1,26.334-15.393,164.663,164.663,0,0,1,31-9.513,145.742,145.742,0,0,1,28.558-3.234h1.62a202.864,202.864,0,0,1,83.879,17.41,215.707,215.707,0,0,1,67.665,47.211c82.756,86.287,82.489,222.564-.611,308.522a215.586,215.586,0,0,1-68.271,46.791,207.586,207.586,0,0,1-84.277,17.219,157.781,157.781,0,0,1-49.437-8.1,124.842,124.842,0,0,1-44.985-26.335v166.116H888.973Zm200.56,99.671a115.2,115.2,0,0,0-53.281,12.768,112.807,112.807,0,0,0-40.72,34.629v130.46a116.642,116.642,0,0,0,94,47.82,104.6,104.6,0,0,0,43.344-8.925,107.474,107.474,0,0,0,34.443-24.3,113.8,113.8,0,0,0,22.893-35.848,119.959,119.959,0,0,0,0-87.721,110.919,110.919,0,0,0-22.893-35.847,109.283,109.283,0,0,0-34.441-24.11,104.694,104.694,0,0,0-43.346-8.863Z" transform="translate(-121.263 -292.673)" fill="#f8f9fa"/>
  <path id="Path_115" data-name="Path 115" d="M1136.084,447.727a99.531,99.531,0,0,0,4.851,9.114,35.1,35.1,0,0,1,4.052,17.621v24.3a49.914,49.914,0,0,1,12.159-19.049,89.986,89.986,0,0,1,19.657-14.7,145.455,145.455,0,0,1,24.108-10.732,250.631,250.631,0,0,1,25.332-7.284,206.547,206.547,0,0,1,23.286-4.054,172.1,172.1,0,0,1,18.627-1.218,203.49,203.49,0,0,1,83.666,17.221,206.549,206.549,0,0,1,66.848,47,219.254,219.254,0,0,1,44.1,69.68,233.65,233.65,0,0,1,0,169.961,219.643,219.643,0,0,1-44.1,69.492,205.535,205.535,0,0,1-179.685,61.994,144.5,144.5,0,0,1-31.185-8.4,150.169,150.169,0,0,1-31.817-17.222,161.416,161.416,0,0,1-31-28.983v193.672h-66.047V447.727ZM1268.157,814.4a142.344,142.344,0,0,0,58.8-11.95,138.743,138.743,0,0,0,45.971-32.824,150.594,150.594,0,0,0,29.991-49.016,174.035,174.035,0,0,0,0-120.335,150.829,150.829,0,0,0-29.991-49.016,138.88,138.88,0,0,0-45.966-32.825,142.433,142.433,0,0,0-58.8-11.949,168.055,168.055,0,0,0-66.69,13.788,175.135,175.135,0,0,0-56.485,38.482l0,192.852a147.2,147.2,0,0,0,25.2,26.734,153.661,153.661,0,0,0,30.176,19.635,161.916,161.916,0,0,0,33.436,12.16,144.935,144.935,0,0,0,34.167,4.325Z" transform="translate(197.369 -292.615)" fill="#f8f9fa"/>
  <path id="Path_116" data-name="Path 116" d="M1249.375,660.483A211.964,211.964,0,0,1,1266.6,575.6a218.932,218.932,0,1,1,0,170.108A212.924,212.924,0,0,1,1249.375,660.483Zm64.83,0a150.134,150.134,0,0,0,12.163,60.169,155.793,155.793,0,0,0,33.028,49.015,153.475,153.475,0,0,0,48.827,32.824,156.9,156.9,0,0,0,120.127,0,153.956,153.956,0,0,0-60.167-295.965,150.91,150.91,0,0,0-59.958,11.949A153.7,153.7,0,0,0,1359.4,551.3a155.993,155.993,0,0,0-33.03,49.016,150.13,150.13,0,0,0-12.1,60.167Z" transform="translate(483.009 -292.591)" fill="#f8f9fa"/>
  <path id="Path_117" data-name="Path 117" d="M1434.942,660.484a211.964,211.964,0,0,1,17.221-84.885,218.936,218.936,0,1,1,0,170.107,212.954,212.954,0,0,1-17.219-85.221Zm64.832,0a150.159,150.159,0,0,0,12.161,60.168,155.973,155.973,0,0,0,33.011,49.016,153.563,153.563,0,0,0,48.827,32.825,150.8,150.8,0,0,0,59.956,11.95A154.042,154.042,0,1,0,1544.944,551.3a156.066,156.066,0,0,0-33.009,49.017,150.128,150.128,0,0,0-12.1,60.167Z" transform="translate(794.116 -292.591)" fill="#f8f9fa"/>
  <path id="Path_118" data-name="Path 118" d="M1700.793,386.01V966.6h-66.047V386.01Z" transform="translate(1129.203 -386.01)" fill="#f8f9fa"/>
</svg>
