<svg xmlns="http://www.w3.org/2000/svg" width="28" height="28" viewBox="0 0 28 28">
  <g id="Group_2525" data-name="Group 2525" transform="translate(-531 -6187)">
    <circle id="Ellipse_75" data-name="Ellipse 75" cx="14" cy="14" r="14" transform="translate(531 6187)" fill="#0270ad"/>
  </g>
  <g id="Group_4057" data-name="Group 4057" transform="translate(-1793 -63.117)">
    <path id="Path_9925" data-name="Path 9925" d="M8.316,8.108H5.593V3.927a3.157,3.157,0,0,0-.112-.9,1.288,1.288,0,0,0-.447-.7,1.324,1.324,0,0,0-1.006-.238A1.441,1.441,0,0,0,2.782,3.139a1.86,1.86,0,0,0-.057.593c0,1.41,0,2.822,0,4.232V8.1H0V.192H2.723v1.1c.112-.139.2-.259.3-.373A2.568,2.568,0,0,1,4.668.037,3.62,3.62,0,0,1,6.388.2,2.606,2.606,0,0,1,7.52.985a3.4,3.4,0,0,1,.738,1.787c.02.149.041.3.059.446Z" transform="translate(1805.406 74.751)" fill="#fff"/>
    <path id="Path_9926" data-name="Path 9926" d="M0,1.2c.01-.041.022-.081.033-.122A1.367,1.367,0,0,1,1.256.02a1.832,1.832,0,0,1,1.1.163A1.325,1.325,0,0,1,3.038,1.63a1.276,1.276,0,0,1-.961,1.023,1.787,1.787,0,0,1-1.331-.09,1.292,1.292,0,0,1-.724-.95C.016,1.591.008,1.571,0,1.549Z" transform="translate(1801 71.117)" fill="#fff"/>
    <path id="Path_9927" data-name="Path 9927" d="M.008,0H2.719V7.912c-.035,0-.069,0-.106,0-.833,0-1.667,0-2.5,0C.024,7.918,0,7.895,0,7.808Q0,3.949,0,.092C0,.063.006.035.008,0Z" transform="translate(1801.161 74.944)" fill="#fff"/>
  </g>
</svg>
