<svg xmlns="http://www.w3.org/2000/svg" width="224.424" height="69.948" viewBox="0 0 224.424 69.948">
  <g id="Group_4062" data-name="Group 4062" transform="translate(-130 -60.03)">
    <g id="Group_183" data-name="Group 183" transform="translate(130 60.03)">
      <path id="Path_119" data-name="Path 119" d="M142.335,426.888l-23.605-23.605a21.316,21.316,0,0,0-30.144,0h0a21.316,21.316,0,0,0,0,30.144l23.605,23.605a21.316,21.316,0,0,0,30.144,0h0a21.316,21.316,0,0,0,0-30.144Z" transform="translate(-82.342 -393.523)" fill="#5cc9f6"/>
      <path id="Path_120" data-name="Path 120" d="M444.965,456.746h0a21.316,21.316,0,0,0-30.144,0h0a21.316,21.316,0,0,0,0,30.147h0a21.316,21.316,0,0,0,30.144,0h0a21.316,21.316,0,0,0,0-30.146Z" transform="translate(-316.158 -431.841)" fill="#fa8807"/>
      <path id="Path_121" data-name="Path 121" d="M129.4,456.581l-8.813,8.813-.038-.04a21.318,21.318,0,0,1-26.355,2.7,21.372,21.372,0,0,0,2.89,3.592l9.513,9.513.1-.036L120.8,495.227l38.646-38.646h0a21.242,21.242,0,0,0-30.047,0Z" transform="translate(-90.835 -431.738)" fill="#00aeeb"/>
      <path id="Path_122" data-name="Path 122" d="M237.112,403.554h0l-.02-.02a20.947,20.947,0,0,0-30.035-.071l-38.626,38.626h0a21.316,21.316,0,0,1-28.7,1.307l13.7,13.7.016-.013a21.289,21.289,0,0,0,30.107,0l37.619-37.619.062.018c.291-.329.589-.653.9-.969h0a21.3,21.3,0,0,1,20.449-5.557,21.21,21.21,0,0,0-5.474-9.4Z" transform="translate(-123.468 -393.605)" fill="#0080ca"/>
      <path id="Path_123" data-name="Path 123" d="M352.919,451.208a21.3,21.3,0,0,0-20.449,5.557c-.316.316-.613.64-.9.969l-.06-.018-37.619,37.619c-.069.069-.14.131-.207.2l.024.027h0a21.316,21.316,0,0,0,30.144,0l23.605-23.605a21.289,21.289,0,0,0,5.466-20.747Z" transform="translate(-233.813 -431.855)" fill="#ee5913"/>
      <circle id="Ellipse_4" data-name="Ellipse 4" cx="3.396" cy="3.396" r="3.396" transform="translate(52.222 9.962)" fill="#5cc9f6"/>
      <circle id="Ellipse_5" data-name="Ellipse 5" cx="2.178" cy="2.178" r="2.178" transform="translate(45.943 5.795)" fill="#5cc9f6"/>
      <circle id="Ellipse_6" data-name="Ellipse 6" cx="2.178" cy="2.178" r="2.178" transform="translate(50.753 0)" fill="#5cc9f6"/>
    </g>
    <g id="Group_182" data-name="Group 182" transform="translate(291.251 94.176)">
      <g id="Group_4060" data-name="Group 4060" transform="translate(-12 -40)">
        <path id="Path_113" data-name="Path 113" d="M602.138,443.855h3.709a4.468,4.468,0,0,1,1.244.173,4.031,4.031,0,0,1,1.106.508,4.494,4.494,0,0,1,.91.794,3.693,3.693,0,0,1,.634,1.014q1.337,3.248,2.7,6.44t2.718,6.44a4.41,4.41,0,0,1,.322,1.106q.069.508.092.9a6.439,6.439,0,0,1,.3-1.5,17.288,17.288,0,0,1,.668-1.751l4.907-11.658a2.919,2.919,0,0,1,.6-.933,4.979,4.979,0,0,1,.945-.794,5.048,5.048,0,0,1,1.141-.553,3.74,3.74,0,0,1,1.21-.208h3.709l-2.627,6.244,2.926,6.958q.461,1.083.9,2.132a5.919,5.919,0,0,1,.484,1.971q.023-.184.057-.426t.127-.61a8.931,8.931,0,0,1,.277-.875q.184-.506.506-1.245l4.913-11.659a3,3,0,0,1,.588-.933,4.662,4.662,0,0,1,.933-.794,5.044,5.044,0,0,1,1.141-.553,3.74,3.74,0,0,1,1.21-.208h3.709L634,468.048H627.46l-3.526-8.939q-.184-.484-.322-.99a3.925,3.925,0,0,1-.139-1.037,2.979,2.979,0,0,1,.161-.99q-.438,1.244-1.624,4.216t-3.168,7.741H612.3Z" transform="translate(-602.138 -436.409)" fill="#2b8fe5"/>
        <path id="Path_114" data-name="Path 114" d="M888.975,442.056H893.9q.119,0,.346.633a10.279,10.279,0,0,1,.414,1.809,2.461,2.461,0,0,1,.853-1.187,6.2,6.2,0,0,1,1.5-.875,9.36,9.36,0,0,1,1.763-.541,8.286,8.286,0,0,1,1.624-.184h.092a11.536,11.536,0,0,1,4.77.99,12.266,12.266,0,0,1,3.848,2.685,12.648,12.648,0,0,1-.035,17.545,12.262,12.262,0,0,1-3.883,2.661,11.8,11.8,0,0,1-4.793.979,8.974,8.974,0,0,1-2.811-.461,7.1,7.1,0,0,1-2.558-1.5v9.447h-6.06Zm11.405,5.668a6.552,6.552,0,0,0-3.03.726,6.416,6.416,0,0,0-2.316,1.969v7.419a6.633,6.633,0,0,0,5.346,2.719,5.947,5.947,0,0,0,2.465-.508,6.113,6.113,0,0,0,1.959-1.382,6.47,6.47,0,0,0,1.3-2.039,6.821,6.821,0,0,0,0-4.989,6.307,6.307,0,0,0-1.3-2.039,6.215,6.215,0,0,0-1.959-1.371,5.953,5.953,0,0,0-2.465-.5Z" transform="translate(-845.313 -434.614)" fill="#2b8fe5"/>
      </g>
      <g id="Group_4061" data-name="Group 4061" transform="translate(-72.774 -0.555)">
        <path id="Path_115" data-name="Path 115" d="M1081.7,442a4.8,4.8,0,0,0,.235.441,1.7,1.7,0,0,1,.2.853v1.176a2.415,2.415,0,0,1,.588-.922,4.356,4.356,0,0,1,.951-.711,7.039,7.039,0,0,1,1.166-.519,12.135,12.135,0,0,1,1.226-.352,9.994,9.994,0,0,1,1.127-.2,8.33,8.33,0,0,1,.9-.059,9.845,9.845,0,0,1,4.048.833,9.995,9.995,0,0,1,3.234,2.274,10.607,10.607,0,0,1,2.134,3.371,11.305,11.305,0,0,1,0,8.223,10.627,10.627,0,0,1-2.134,3.362,9.945,9.945,0,0,1-8.694,3,6.992,6.992,0,0,1-1.509-.406,7.267,7.267,0,0,1-1.539-.833,7.809,7.809,0,0,1-1.5-1.4v9.371h-3.2V442Zm6.39,17.741a6.887,6.887,0,0,0,2.845-.578,6.712,6.712,0,0,0,2.224-1.588,7.287,7.287,0,0,0,1.451-2.372,8.42,8.42,0,0,0,0-5.822,7.3,7.3,0,0,0-1.451-2.372,6.721,6.721,0,0,0-2.224-1.588,6.891,6.891,0,0,0-2.845-.578,8.131,8.131,0,0,0-3.227.667,8.474,8.474,0,0,0-2.733,1.862v9.331a7.124,7.124,0,0,0,1.219,1.294,7.437,7.437,0,0,0,1.46.95,7.833,7.833,0,0,0,1.618.588,7.01,7.01,0,0,0,1.653.209Z" transform="translate(-1018.165 -434.5)" fill="#092772"/>
        <path id="Path_116" data-name="Path 116" d="M1249.37,452.3a10.257,10.257,0,0,1,.833-4.107,10.593,10.593,0,1,1,0,8.23,10.3,10.3,0,0,1-.833-4.123Zm3.137,0a7.264,7.264,0,0,0,.588,2.911,7.539,7.539,0,0,0,1.6,2.371,7.426,7.426,0,0,0,2.362,1.588,7.592,7.592,0,0,0,5.812,0,7.449,7.449,0,0,0-2.911-14.32,7.3,7.3,0,0,0-2.9.578,7.437,7.437,0,0,0-2.362,1.588,7.548,7.548,0,0,0-1.6,2.372,7.264,7.264,0,0,0-.585,2.911Z" transform="translate(-1166.53 -434.5)" fill="#092772"/>
        <path id="Path_117" data-name="Path 117" d="M1434.94,452.3a10.257,10.257,0,0,1,.833-4.107,10.593,10.593,0,1,1,0,8.23,10.305,10.305,0,0,1-.833-4.123Zm3.137,0a7.268,7.268,0,0,0,.589,2.911,7.547,7.547,0,0,0,1.6,2.372,7.43,7.43,0,0,0,2.362,1.588,7.3,7.3,0,0,0,2.9.578,7.453,7.453,0,1,0-5.263-12.732,7.551,7.551,0,0,0-1.6,2.372,7.264,7.264,0,0,0-.585,2.911Z" transform="translate(-1328.068 -434.5)" fill="#092772"/>
        <path id="Path_118" data-name="Path 118" d="M1637.941,386.01V414.1h-3.2V386.01Z" transform="translate(-1501.993 -386.01)" fill="#092772"/>
      </g>
    </g>
  </g>
</svg>


