<svg xmlns="http://www.w3.org/2000/svg" width="47.48" height="62" viewBox="0 0 47.48 62">
  <path id="np_phone_2173681_000000" d="M27.582,0c-3.928,0-7.141,2.48-7.141,5.512V56.488c0,3.032,3.213,5.512,7.141,5.512h33.2c3.928,0,7.141-2.48,7.141-5.512V5.512C67.921,2.48,64.709,0,60.78,0ZM40.2,5.309h7.96a.993.993,0,0,1,.948,1.034.993.993,0,0,1-.948,1.034H40.2a.993.993,0,0,1-.948-1.034A.993.993,0,0,1,40.2,5.309ZM24.366,12.676H64V49.322H24.366ZM44.183,52.247c2.441,0,4.421,1.528,4.421,3.412s-1.98,3.412-4.421,3.412-4.421-1.528-4.421-3.412S41.742,52.247,44.183,52.247Z" transform="translate(-20.441)" fill="#092772"/>
</svg>
